PathFileType	4	(X/Y/Z)	pose_F01_0-94.trc
DataRate	CameraRate	NumFrames	NumMarkers	Units	OrigDataRate	OrigDataStartFrame	OrigNumFrames
30	30	11	21	m	30	18	94
Frame#	Time	CHip			RHip			RKnee			RAnkle			RBigToe			RSmallToe			RHeel			LHip			LKnee			LAnkle			LBigToe			LSmallToe			LHeel			Neck			Nose			RShoulder			RElbow			RWrist			LShoulder			LElbow			LWrist			
		X1	Y1	Z1	X2	Y2	Z2	X3	Y3	Z3	X4	Y4	Z4	X5	Y5	Z5	X6	Y6	Z6	X7	Y7	Z7	X8	Y8	Z8	X9	Y9	Z9	X10	Y10	Z10	X11	Y11	Z11	X12	Y12	Z12	X13	Y13	Z13	X14	Y14	Z14	X15	Y15	Z15	X16	Y16	Z16	X17	Y17	Z17	X18	Y18	Z18	X19	Y19	Z19	X20	Y20	Z20	X21	Y21	Z21	
18	0.6	-0.2817799672457576	1.8823063281353216	-0.6414838456434895	-0.29650755773273973	1.880652709321204	-0.5799507192520138																-0.2657931146233812	1.8883531901199326	-0.7032901611902054																-0.28301274366651624	2.0481965588577955	-0.6526910313638904	-0.2714481093623281	2.112174771903657	-0.630934492618459	-0.3040730494536149	2.042054210219855	-0.568706284608529	-1.5494072663665208	1.8640907401589693	0.7572105114326859	-0.31225639076757994	1.8858549191659155	-0.5083121664368416	-0.2614693854109176	2.053570142182607	-0.7421416810070279	-0.25337135210651296	1.968439532732496	-0.7659883000882145	-1.1387688149529405	1.791764754261388	0.09334647620812171
19	0.6333333333333333	-0.28106886190432107	1.8846108801192818	-0.6388634994951696	-0.2946523391422377	1.8817864018977606	-0.5822066396083666																-0.26590117009898423	1.8898425648007202	-0.7034279464120976																-0.2840510111852407	2.0470449959517376	-0.655659899380109	-0.2715364382505312	2.110969142529954	-0.631179546411147	-0.30408207943347565	2.042160961093174	-0.5687949005531042	-1.543317028993798	1.8640987964459261	0.7450194235490982	-0.310348337182452	1.88437796343735	-0.5105221352516004	-0.26152034174116756	2.0535116661008357	-0.7421111876762863	-0.2534499823372647	1.969594480168313	-0.7662399877168597	-1.1388119703495083	1.7921523032296323	0.09309921025631014
20	0.6666666666666666	-0.2810024830252241	1.883498774244291	-0.6386485588282936	-0.2966558079773842	1.882110522955788	-0.5800861494202871																-0.2657814394050001	1.8888374747982182	-0.7032842397970941																-0.28313267873790693	2.0469118472094086	-0.6527978200961292	-0.27154066935060217	2.1121818238277936	-0.6317512774574586	-0.3041793426745676	2.0423027641521165	-0.5693094086257585	-1.5493695827029426	1.8641217842097624	0.757112744592342	-0.31233905811088286	1.8827119105451542	-0.5079829129091425	-0.26066618442387496	2.0534611208946734	-0.7392818951618275	-0.25329244934885414	1.969594246125249	-0.7659913827743406	-1.1304486690370366	1.7912566413342825	0.08087653327359913
21	0.7	-0.28190511251659356	1.8833899386532926	-0.6416459564854786	-0.2968194174969285	1.880477476512987	-0.5799697223571463																-0.26578419299768763	1.8882490925113338	-0.7033648808828832																-0.2839195777217705	2.0484373056974885	-0.655546527199844	-0.27153688935592984	2.110973286378673	-0.6312345982051873	-0.3041102441863481	2.0421133082055385	-0.5687570639632843	-1.547556744844244	1.8624765922911792	0.7545169029847725	-0.3112283016527283	1.882583031874554	-0.5046733492914527	-0.2614862410334128	2.053714192839825	-0.7421907664117972	-0.25134853385115574	1.9693793724344784	-0.7683910182937234	-1.1358356219206356	1.79121440129013	0.09108435086412975
22	0.7333333333333333	-0.2817285958509821	1.8848953882218749	-0.6418202170926044	-0.29635900251710634	1.8819971401115305	-0.5801057167165532																-0.2665053991631704	1.8901198586677426	-0.7064497763435239																-0.28389894671686233	2.04842571227785	-0.65565021900141	-0.2714779286417653	2.1132708514821203	-0.6316247075244111	-0.305052948366332	2.043714389674454	-0.5721868404186089	-1.5414310612835402	1.8623510064069162	0.7422961387897417	-0.3122220936960215	1.8814201666985537	-0.5077600870170217	-0.25940179311642075	2.0535311780834444	-0.7442950469742863	-0.25128482846639044	1.9681497567251054	-0.7681387774610514	-1.1386835625256886	1.7932306871389851	0.09238414837778938
23	0.7666666666666667	-0.2820614790408504	1.8852356889866941	-0.6418547751037483	-0.296696588409934	1.8822550166429473	-0.5801097182353931																-0.26679440750690303	1.890413399761293	-0.7064859017530969																-0.2838784254144692	2.047197828596048	-0.6552063992647514	-0.27145955410866013	2.1120411116864486	-0.6311144598100645	-0.3040705571649131	2.042102980141629	-0.5687603495486865	-1.547701547792072	1.8621439608250387	0.7548865687389626	-0.31115919301986633	1.8848108078072447	-0.5049733321675766	-0.26141172990256484	2.054936542059366	-0.7421337894667257	-0.2542178504580694	1.9686928522223015	-0.7689399990927546	-1.13301182695196	1.7940323694092482	0.08327747269585066
24	0.8	-0.28213138396049037	1.8867263962383962	-0.6419903111231084	-0.29675564635422025	1.8833692808879925	-0.5803788475068936																-0.2660302197802744	1.8916345417819374	-0.7035875326023873																-0.2839215589972316	2.048553113632175	-0.655696858847344	-0.27235163577517596	2.112190633205022	-0.6339766599141337	-0.3050339898032396	2.042512116467196	-0.5718147486954966	-1.5431798963381307	1.864052372445115	0.7447239637975905	-0.31224855847794786	1.8839754671329496	-0.5081846594426374	-0.2615215226702646	2.0537719452621217	-0.7422807272331117	-0.2542453637142949	1.9682381677149057	-0.768979701063514	-1.1251992968042166	1.7928294710150645	0.06960530624554792
25	0.8333333333333334	-0.2796589072838849	1.8853789409106476	-0.6439776335832795	-0.29463817443443535	1.8819136925819486	-0.5822991855953493																-0.26657375891548224	1.8918444142189623	-0.7065903311666066																-0.2848078024086878	2.048678349162901	-0.6586034800391413	-0.27233447231444396	2.112184332131487	-0.6340536022796738	-0.3050363990727359	2.042485646479323	-0.5718100406066111	-1.543150561868931	1.8640656785829115	0.7446798797525228	-0.31339872614475467	1.8854728433908088	-0.5115130378687819	-0.262360176574641	2.053829296548731	-0.7452259701706078	-0.2541172494032255	1.9701393908528118	-0.7688688577336086	-1.1256922315727145	1.792426009874473	0.06851745919579627
26	0.8666666666666667	-0.2818495022107574	1.8852656371995866	-0.6417968649731861	-0.29674037679953275	1.8817064084247253	-0.5801517917068724																-0.2667472130055293	1.8889207774740548	-0.7063176594383627																-0.2847939424926927	2.048707384132884	-0.6586223990701473	-0.2704589213163279	2.11221526905178	-0.6368209671432873	-0.3050144881415927	2.0427069121391317	-0.571841818412252	-1.542851808666004	1.8644016867519229	0.7440193164573324	-0.3134982280838901	1.8862930732672947	-0.5118247997752814	-0.2602612974125016	2.05371683102784	-0.7473070349810923	-0.2540969139055233	1.9702931239919412	-0.7689623090643585	-1.130202493900249	1.7950717506834393	0.07482468412058763
27	0.9	-0.281839912870686	1.8823623680484822	-0.6416512383894292	-0.2965627095263056	1.8802827739671777	-0.5800001969851318																-0.26660848603139425	1.8870815813678943	-0.7063877869320025																-0.28490107507414963	2.0474172781273725	-0.6588023046477771	-0.2703761813208611	2.1133324761446737	-0.6367127836013983	-0.3051756992677878	2.0425966615981768	-0.5723488558295374	-1.5446627574870901	1.864010327882593	0.7463492287281507	-0.3123027085841759	1.8859205760158335	-0.5083918958281953	-0.2602298934807245	2.053819076724192	-0.7474280110294002	-0.2521492912138614	1.9704294020283275	-0.7713414373981133	-1.1226859339350908	1.7935256901628038	0.061888359483215125
28	0.9333333333333333	-0.2798363003881607	1.8838222593665686	-0.6439512336488623	-0.2945673984412926	1.880394352916048	-0.5821592172569895																-0.26458759429882195	1.8887241635573655	-0.7085441175264637																-0.28490019850565274	2.0474093429017968	-0.6588284745305296	-0.27038446986570425	2.112218496652279	-0.6362428925071911	-0.3061339726279238	2.0428357602936655	-0.5753890708459936	-1.543096305150743	1.8641170716206723	0.7445181998841546	-0.31201085412187296	1.887503679625992	-0.5087551987501674	-0.26022367957630604	2.0537694736686527	-0.7473959948925566	-0.25424832641722356	1.9686298609969504	-0.7690762338335391	-1.1280520480624578	1.793460255946585	0.07204228674185356
